# xmcd
#
# Track frame offsets: 
#        150
#        13387
#        28925
#        46521
#        61271
#        72948
#        93143
#        109850
#        130449
#        140221
#        158084
#        171455
#        185747
#        203167
#
# Disc length: 2889 seconds
#
# Revision: 2
# Processed by: cddbd v1.5.2PL0 Copyright (c) Steve Scherf et al.
# Submitted via: ExactAudioCopy v0.99pb5
#
DISCID=ce0b470e
DTITLE=Various Artist - Zeitgeist - 1977
DYEAR=2008
DGENRE=Schlager
TTITLE0=Andreas Holm - Das schließ ein in unsere Liebe
TTITLE1=Freya and Bernd Wippich - ...dann pfeif drauf
TTITLE2=Bernhard Brink - Danielle
TTITLE3=Die Albrecht-Familie - Wohlauf in Gottes schöne Welt
TTITLE4=Strassenjungs - Ich brauch meinen Suff
TTITLE5=Gebrüder Blattschuss - 50 Tricks, die Liebste los zu werden
TTITLE6=Hoffmann and Hoffmann - Himbeereis zum Frühstück
TTITLE7=Jane Palmer - Keiner war wie du
TTITLE8=Jonny Hill - In Hamburg sind die Nächte lang
TTITLE9=Kerstin - Ich verlor mich selbst
TTITLE10=Bruce Low - Sodom und Gomorra
TTITLE11=Roland Kaiser - Sieben Fässer Wein
TTITLE12=Tess - Sie nannten ihn Taugenichts
TTITLE13=Wencke Myhre - Eine Mark für Charly
EXTD=YEAR: 1977
EXTT0=
EXTT1=
EXTT2=
EXTT3=
EXTT4=
EXTT5=
EXTT6=
EXTT7=
EXTT8=
EXTT9=
EXTT10=
EXTT11=
EXTT12=
EXTT13=
PLAYORDER=
